<svg width="18" height="14" viewBox="0 0 18 14" fill="none" xmlns="http://www.w3.org/2000/svg">
<path d="M11.5649 6.75249L7.9649 4.35249C7.91978 4.32244 7.86737 4.30518 7.81322 4.30254C7.75908 4.2999 7.70523 4.31198 7.6574 4.33749C7.60946 4.36243 7.56937 4.40016 7.54157 4.44649C7.51377 4.49283 7.49935 4.54596 7.4999 4.59999V9.39999C7.49935 9.45403 7.51377 9.50716 7.54157 9.55349C7.56937 9.59983 7.60946 9.63756 7.6574 9.66249C7.70156 9.68534 7.75022 9.69814 7.7999 9.69999C7.85917 9.70108 7.91716 9.68263 7.9649 9.64749L11.5649 7.24749C11.6067 7.22115 11.6412 7.18462 11.6651 7.14134C11.689 7.09806 11.7015 7.04943 11.7015 6.99999C11.7015 6.95055 11.689 6.90192 11.6651 6.85864C11.6412 6.81536 11.6067 6.77884 11.5649 6.75249ZM8.0999 8.83749V5.16249L10.8599 6.99999L8.0999 8.83749ZM16.6874 2.70999C16.6254 2.48132 16.5112 2.27016 16.3537 2.09316C16.1963 1.91615 15.9998 1.77814 15.7799 1.68999C13.2449 0.714994 9.1724 0.729994 8.9999 0.729994C8.8274 0.729994 4.7549 0.714994 2.2199 1.68999C1.99999 1.77814 1.80355 1.91615 1.64607 2.09316C1.48859 2.27016 1.37437 2.48132 1.3124 2.70999C1.1249 3.43749 0.899902 4.77249 0.899902 6.99999C0.899902 9.22749 1.1249 10.5625 1.3124 11.29C1.37437 11.5187 1.48859 11.7298 1.64607 11.9068C1.80355 12.0838 1.99999 12.2218 2.2199 12.31C4.7549 13.285 8.8274 13.27 8.9999 13.27H9.0524C9.5699 13.27 13.3724 13.24 15.7799 12.31C15.9998 12.2218 16.1963 12.0838 16.3537 11.9068C16.5112 11.7298 16.6254 11.5187 16.6874 11.29C16.8749 10.5625 17.0999 9.22749 17.0999 6.99999C17.0999 4.77249 16.8749 3.43749 16.6874 2.70999ZM16.1024 11.14C16.0664 11.2765 15.9987 11.4026 15.9049 11.5082C15.8111 11.6137 15.6938 11.6957 15.5624 11.7475C13.1324 12.685 9.0449 12.67 8.9999 12.67C8.9549 12.67 4.8674 12.685 2.4374 11.7475C2.30605 11.6957 2.18872 11.6137 2.09492 11.5082C2.00111 11.4026 1.93345 11.2765 1.8974 11.14C1.7174 10.4425 1.4999 9.15999 1.4999 6.99999C1.4999 4.83999 1.7174 3.55749 1.8974 2.85999C1.93345 2.72347 2.00111 2.59735 2.09492 2.49181C2.18872 2.38628 2.30605 2.3043 2.4374 2.25249C4.8674 1.31499 8.9549 1.32999 8.9999 1.32999C9.0449 1.32999 13.1324 1.31499 15.5624 2.25249C15.6938 2.3043 15.8111 2.38628 15.9049 2.49181C15.9987 2.59735 16.0664 2.72347 16.1024 2.85999C16.2824 3.55749 16.4999 4.83999 16.4999 6.99999C16.4999 9.15999 16.2824 10.4425 16.1024 11.14Z" fill="currentColor"/>
</svg>
