<svg width="60" height="60" viewBox="0 0 60 60" fill="none" xmlns="http://www.w3.org/2000/svg">
<path d="M16.625 21.2816C16.625 21.2816 14.475 22.5725 13.9958 24.695C13.5166 26.8175 13.9958 29.1416 13.9958 29.1416C13.9958 29.1416 10.6241 30.5325 10.6241 34.9066C10.6241 39.2808 13.4683 40.5174 13.4683 40.5174C13.4683 40.5174 13.5016 45.68 16.6841 48.4641C19.8666 51.2483 23.2058 51.2616 23.2058 51.2616C23.2058 51.2616 24.9425 54.9349 30.0516 54.9349C35.1608 54.9349 36.8983 51.2616 36.8983 51.2616C36.8983 51.2616 40.3566 50.7566 43.42 48.4641C46.4833 46.1725 46.3991 40.5174 46.3991 40.5174C46.3991 40.5174 49.48 39.2816 49.48 34.9066C49.48 30.5316 46.1075 29.1425 46.1075 29.1425C46.1075 29.1425 46.5883 26.8175 46.1075 24.695C45.6266 22.5725 43.4783 21.2816 43.4783 21.2816" fill="#B22EC8"/>
<path d="M46.2067 27.8567C46.2067 18.9242 38.965 16.4083 30.0333 16.4083C21.1017 16.4083 13.86 18.925 13.86 27.8567C13.86 36.7883 21.1017 44.03 30.0333 44.03C38.965 44.03 46.2067 36.7883 46.2067 27.8567Z" fill="#B22EC8"/>
<path d="M30.5475 54.9233C30.5475 54.9233 34.9208 51.865 34.635 44.8308C36.5158 42.8741 37.0992 40.245 35.3908 37.05C38.2767 32.9366 37.9767 28.4866 34.5242 25.1133C35.9467 23.06 35.2025 21.2816 33.5942 19.9458C33.5942 19.9458 38.2233 22.2158 41.7692 18.97C41.7692 18.97 49.2217 24.3283 46.1075 29.1425C46.1075 29.1425 54.3358 34.7033 46.3992 40.5175C46.3992 40.5175 47.5583 49.38 37.0992 51.2258C37.0992 51.2258 34.3458 54.3425 30.5475 54.9233Z" fill="#6A107A"/>
<path d="M46.4833 9.38497C42.925 25.9908 32.0042 20.3291 30.52 17.4091C29.0367 14.4883 30.47 2.8608 46.4833 9.38414V9.38497Z" fill="currentColor"/>
<path d="M13.62 9.38497C17.1783 25.9908 28.0992 20.3291 29.5833 17.4091C31.0667 14.4883 29.6333 2.8608 13.62 9.38414V9.38497Z" fill="currentColor"/>
<path d="M46.4833 9.38497C42.925 25.9908 32.0042 20.3291 30.52 17.4091C29.0367 14.4883 30.47 2.8608 46.4833 9.38414V9.38497Z" stroke="black" stroke-width="2" stroke-miterlimit="10" stroke-linecap="round" stroke-linejoin="round"/>
<path d="M37.9767 12.745C35.3683 13.7466 32.0275 15.3575 30.5475 17.4575M13.62 9.38497C17.1783 25.9908 28.0992 20.3291 29.5833 17.4091C31.0667 14.4883 29.6333 2.8608 13.62 9.38414V9.38497Z" stroke="black" stroke-width="2" stroke-miterlimit="10" stroke-linecap="round" stroke-linejoin="round"/>
<path d="M22.1266 12.745C24.7358 13.7467 28.0758 15.3575 29.5558 17.4575M16.625 21.2817C16.625 21.2817 14.475 22.5725 13.9958 24.695C13.5166 26.8175 13.9958 29.1417 13.9958 29.1417C13.9958 29.1417 10.6241 30.5325 10.6241 34.9067C10.6241 39.2808 13.4683 40.5175 13.4683 40.5175C13.4683 40.5175 13.5016 45.68 16.6841 48.4642C19.8666 51.2483 23.2058 51.2617 23.2058 51.2617C23.2058 51.2617 24.9425 54.935 30.0516 54.935C35.1608 54.935 36.8983 51.2617 36.8983 51.2617C36.8983 51.2617 40.3566 50.7567 43.42 48.4642C46.4833 46.1725 46.3991 40.5175 46.3991 40.5175C46.3991 40.5175 49.48 39.2817 49.48 34.9067C49.48 30.5317 46.1075 29.1425 46.1075 29.1425C46.1075 29.1425 46.5883 26.8175 46.1075 24.695C45.6266 22.5725 43.4783 21.2817 43.4783 21.2817" stroke="black" stroke-width="2" stroke-miterlimit="10" stroke-linecap="round" stroke-linejoin="round"/>
<path d="M35.2025 24.5625C35.2025 24.5625 33.0225 26.8683 30.3325 26.8683M25.2767 24.5625C25.2767 24.5625 27.4567 26.8683 30.1467 26.8683M41.7183 32.9367C41.7183 35.3467 39.65 37.3 37.0992 37.3M32.3025 32.9367C32.3025 35.3467 34.3708 37.3 36.9217 37.3M28.2358 32.9367C28.2358 35.3467 26.1675 37.3 23.6158 37.3M18.8192 32.9367C18.8192 35.3467 20.8875 37.3 23.4392 37.3M34.9208 44.885C34.0508 46.0425 32.2875 46.8342 30.2533 46.8342M25.2842 44.7433C26.1133 45.9767 27.9367 46.8342 30.0525 46.8342M25.2417 45.0417C25.2417 46.075 24.6008 47.0075 23.5767 47.6617M34.9708 45.0417C34.9708 46.1692 35.7317 47.175 36.9217 47.8317" stroke="black" stroke-width="2" stroke-miterlimit="10" stroke-linecap="round" stroke-linejoin="round"/>
<path d="M19.5092 35.56C19.5092 37.5317 18.125 39.1975 16.2242 39.7383M20.8433 24.5333C20.8433 27.1125 18.775 29.2042 16.2233 29.2042M38.6442 24.5333C38.6442 27.1125 40.7125 29.2042 43.2642 29.2042M41.0425 35.56C41.0425 37.4433 42.3058 39.0475 44.0758 39.66" stroke="black" stroke-width="2" stroke-miterlimit="10" stroke-linecap="round" stroke-linejoin="round"/>
</svg>
